{
	"asset":{
		"generator":"Khronos glTF Blender I/O v3.6.28",
		"version":"2.0"
	},
	"scene":0,
	"scenes":[
		{
			"name":"Scene",
			"nodes":[
				0
			]
		}
	],
	"nodes":[
		{
			"mesh":0,
			"name":"Blahaj"
		}
	],
	"materials":[
		{
			"doubleSided":true,
			"name":"Material.003",
			"pbrMetallicRoughness":{}
		}
	],
	"meshes":[
		{
			"name":"Cube.008",
			"primitives":[
				{
					"attributes":{
						"POSITION":0,
						"NORMAL":1,
						"TEXCOORD_0":2
					},
					"indices":3,
					"material":0
				}
			]
		}
	],
	"accessors":[
		{
			"bufferView":0,
			"componentType":5126,
			"count":113,
			"max":[
				3.195573091506958,
				4.298170566558838,
				7.075527191162109
			],
			"min":[
				-3.195573091506958,
				-2.0612680912017822,
				-7.015644073486328
			],
			"type":"VEC3"
		},
		{
			"bufferView":1,
			"componentType":5126,
			"count":113,
			"type":"VEC3"
		},
		{
			"bufferView":2,
			"componentType":5126,
			"count":113,
			"type":"VEC2"
		},
		{
			"bufferView":3,
			"componentType":5123,
			"count":597,
			"type":"SCALAR"
		}
	],
	"bufferViews":[
		{
			"buffer":0,
			"byteLength":1356,
			"byteOffset":0,
			"target":34962
		},
		{
			"buffer":0,
			"byteLength":1356,
			"byteOffset":1356,
			"target":34962
		},
		{
			"buffer":0,
			"byteLength":904,
			"byteOffset":2712,
			"target":34962
		},
		{
			"buffer":0,
			"byteLength":1194,
			"byteOffset":3616,
			"target":34963
		}
	],
	"buffers":[
		{
			"byteLength":4812,
			"uri":"data:application/octet-stream;base64,"
		}
	]
}
