{
	"asset":{
		"generator":"Khronos glTF Blender I/O v3.6.28",
		"version":"2.0"
	},
	"scene":0,
	"scenes":[
		{
			"name":"Scene",
			"nodes":[
				0
			]
		}
	],
	"nodes":[
		{
			"mesh":0,
			"name":"Car"
		}
	],
	"materials":[
		{
			"doubleSided":true,
			"name":"Material",
			"pbrMetallicRoughness":{}
		}
	],
	"meshes":[
		{
			"name":"Cube",
			"primitives":[
				{
					"attributes":{
						"COLOR_0":0,
						"POSITION":1,
						"NORMAL":2,
						"TEXCOORD_0":3
					},
					"indices":4,
					"material":0
				}
			]
		}
	],
	"accessors":[
		{
			"bufferView":0,
			"componentType":5123,
			"count":188,
			"normalized":true,
			"type":"VEC4"
		},
		{
			"bufferView":1,
			"componentType":5126,
			"count":188,
			"max":[
				3.140490770339966,
				1.4286880493164062,
				1.5
			],
			"min":[
				-2.640490770339966,
				-0.8978012800216675,
				-1.5
			],
			"type":"VEC3"
		},
		{
			"bufferView":2,
			"componentType":5126,
			"count":188,
			"type":"VEC3"
		},
		{
			"bufferView":3,
			"componentType":5126,
			"count":188,
			"type":"VEC2"
		},
		{
			"bufferView":4,
			"componentType":5123,
			"count":414,
			"type":"SCALAR"
		}
	],
	"bufferViews":[
		{
			"buffer":0,
			"byteLength":1504,
			"byteOffset":0,
			"target":34962
		},
		{
			"buffer":0,
			"byteLength":2256,
			"byteOffset":1504,
			"target":34962
		},
		{
			"buffer":0,
			"byteLength":2256,
			"byteOffset":3760,
			"target":34962
		},
		{
			"buffer":0,
			"byteLength":1504,
			"byteOffset":6016,
			"target":34962
		},
		{
			"buffer":0,
			"byteLength":828,
			"byteOffset":7520,
			"target":34963
		}
	],
	"buffers":[
		{
			"byteLength":8348,
			"uri":"data:application/octet-stream;base64,"
		}
	]
}
