{
	"asset":{
		"generator":"Khronos glTF Blender I/O v3.6.28",
		"version":"2.0"
	},
	"scene":0,
	"scenes":[
		{
			"name":"Scene",
			"nodes":[
				0,
				1
			]
		}
	],
	"nodes":[
		{
			"mesh":0,
			"name":"Car"
		},
		{
			"mesh":1,
			"name":"Wheels"
		}
	],
	"materials":[
		{
			"doubleSided":true,
			"name":"Material",
			"pbrMetallicRoughness":{}
		}
	],
	"meshes":[
		{
			"name":"Cube",
			"primitives":[
				{
					"attributes":{
						"COLOR_0":0,
						"POSITION":1,
						"NORMAL":2,
						"TEXCOORD_0":3
					},
					"indices":4,
					"material":0
				}
			]
		},
		{
			"name":"Cube.001",
			"primitives":[
				{
					"attributes":{
						"COLOR_0":5,
						"POSITION":6,
						"NORMAL":7,
						"TEXCOORD_0":8
					},
					"indices":9,
					"material":0
				}
			]
		}
	],
	"accessors":[
		{
			"bufferView":0,
			"componentType":5123,
			"count":188,
			"normalized":true,
			"type":"VEC4"
		},
		{
			"bufferView":1,
			"componentType":5126,
			"count":188,
			"max":[
				3.140490770339966,
				1.4286880493164062,
				1.5
			],
			"min":[
				-2.640490770339966,
				-0.8978012800216675,
				-1.5
			],
			"type":"VEC3"
		},
		{
			"bufferView":2,
			"componentType":5126,
			"count":188,
			"type":"VEC3"
		},
		{
			"bufferView":3,
			"componentType":5126,
			"count":188,
			"type":"VEC2"
		},
		{
			"bufferView":4,
			"componentType":5123,
			"count":414,
			"type":"SCALAR"
		},
		{
			"bufferView":5,
			"componentType":5123,
			"count":240,
			"normalized":true,
			"type":"VEC4"
		},
		{
			"bufferView":6,
			"componentType":5126,
			"count":240,
			"max":[
				2.1273765563964844,
				-0.7044241428375244,
				1.4521903991699219
			],
			"min":[
				-2.1273765563964844,
				-1.5704495906829834,
				-1.4521903991699219
			],
			"type":"VEC3"
		},
		{
			"bufferView":7,
			"componentType":5126,
			"count":240,
			"type":"VEC3"
		},
		{
			"bufferView":8,
			"componentType":5126,
			"count":240,
			"type":"VEC2"
		},
		{
			"bufferView":9,
			"componentType":5123,
			"count":528,
			"type":"SCALAR"
		}
	],
	"bufferViews":[
		{
			"buffer":0,
			"byteLength":1504,
			"byteOffset":0,
			"target":34962
		},
		{
			"buffer":0,
			"byteLength":2256,
			"byteOffset":1504,
			"target":34962
		},
		{
			"buffer":0,
			"byteLength":2256,
			"byteOffset":3760,
			"target":34962
		},
		{
			"buffer":0,
			"byteLength":1504,
			"byteOffset":6016,
			"target":34962
		},
		{
			"buffer":0,
			"byteLength":828,
			"byteOffset":7520,
			"target":34963
		},
		{
			"buffer":0,
			"byteLength":1920,
			"byteOffset":8348,
			"target":34962
		},
		{
			"buffer":0,
			"byteLength":2880,
			"byteOffset":10268,
			"target":34962
		},
		{
			"buffer":0,
			"byteLength":2880,
			"byteOffset":13148,
			"target":34962
		},
		{
			"buffer":0,
			"byteLength":1920,
			"byteOffset":16028,
			"target":34962
		},
		{
			"buffer":0,
			"byteLength":1056,
			"byteOffset":17948,
			"target":34963
		}
	],
	"buffers":[
		{
			"byteLength":19004,
			"uri":"data:application/octet-stream;base64,"
		}
	]
}
